# Blender 4.3.2
# www.blender.org
mtllib tree.mtl
o Cylinder
v 1.906190 0.056064 -0.036962
v 1.906190 0.056064 1.084319
v 1.917127 0.054987 -0.036962
v 1.917127 0.054987 1.084319
v 1.927644 0.051796 -0.036962
v 1.927644 0.051796 1.084319
v 1.937337 0.046616 -0.036962
v 1.937337 0.046616 1.084319
v 1.945833 0.039643 -0.036962
v 1.945833 0.039643 1.084319
v 1.952805 0.031148 -0.036962
v 1.952805 0.031148 1.084319
v 1.957986 0.021455 -0.036962
v 1.957986 0.021455 1.084319
v 1.961176 0.010938 -0.036962
v 1.961176 0.010938 1.084319
v 1.962254 0.000000 -0.036962
v 1.962254 -0.000000 1.084319
v 1.961176 -0.010938 -0.036962
v 1.961176 -0.010938 1.084319
v 1.957986 -0.021455 -0.036962
v 1.957986 -0.021455 1.084319
v 1.952805 -0.031148 -0.036962
v 1.952805 -0.031148 1.084319
v 1.945833 -0.039643 -0.036962
v 1.945833 -0.039643 1.084319
v 1.937337 -0.046616 -0.036962
v 1.937337 -0.046616 1.084319
v 1.927644 -0.051796 -0.036962
v 1.927644 -0.051796 1.084319
v 1.917127 -0.054987 -0.036962
v 1.917127 -0.054987 1.084319
v 1.906190 -0.056064 -0.036962
v 1.906190 -0.056064 1.084319
v 1.895252 -0.054987 -0.036962
v 1.895252 -0.054987 1.084319
v 1.884735 -0.051796 -0.036962
v 1.884735 -0.051796 1.084319
v 1.875042 -0.046616 -0.036962
v 1.875042 -0.046616 1.084319
v 1.866546 -0.039643 -0.036962
v 1.866546 -0.039643 1.084319
v 1.859574 -0.031147 -0.036962
v 1.859574 -0.031147 1.084319
v 1.854393 -0.021455 -0.036962
v 1.854393 -0.021455 1.084319
v 1.851203 -0.010938 -0.036962
v 1.851203 -0.010938 1.084319
v 1.850125 0.000000 -0.036962
v 1.850125 -0.000000 1.084319
v 1.851203 0.010938 -0.036962
v 1.851203 0.010938 1.084319
v 1.854393 0.021455 -0.036962
v 1.854393 0.021455 1.084319
v 1.859574 0.031148 -0.036962
v 1.859574 0.031148 1.084319
v 1.866546 0.039643 -0.036962
v 1.866546 0.039643 1.084319
v 1.875042 0.046616 -0.036962
v 1.875042 0.046616 1.084319
v 1.884735 0.051796 -0.036962
v 1.884735 0.051796 1.084319
v 1.895252 0.054987 -0.036962
v 1.895252 0.054987 1.084319
vn 0.0980 0.9952 -0.0000
vn 0.2903 0.9569 -0.0000
vn 0.4713 0.8820 -0.0000
vn 0.6344 0.7730 -0.0000
vn 0.7730 0.6344 -0.0000
vn 0.8819 0.4714 -0.0000
vn 0.9569 0.2903 -0.0000
vn 0.9952 0.0981 -0.0000
vn 0.9952 -0.0981 -0.0000
vn 0.9569 -0.2903 -0.0000
vn 0.8819 -0.4714 -0.0000
vn 0.7730 -0.6344 -0.0000
vn 0.6344 -0.7730 -0.0000
vn 0.4713 -0.8820 -0.0000
vn 0.2903 -0.9569 -0.0000
vn 0.0980 -0.9952 -0.0000
vn -0.0980 -0.9952 -0.0000
vn -0.2903 -0.9569 -0.0000
vn -0.4713 -0.8820 -0.0000
vn -0.6344 -0.7730 -0.0000
vn -0.7730 -0.6344 -0.0000
vn -0.8819 -0.4714 -0.0000
vn -0.9569 -0.2903 -0.0000
vn -0.9952 -0.0981 -0.0000
vn -0.9952 0.0981 -0.0000
vn -0.9569 0.2903 -0.0000
vn -0.8819 0.4714 -0.0000
vn -0.7730 0.6344 -0.0000
vn -0.6344 0.7730 -0.0000
vn -0.4713 0.8820 -0.0000
vn -0.0000 -0.0000 1.0000
vn -0.2903 0.9569 -0.0000
vn -0.0980 0.9952 -0.0000
vn -0.0000 -0.0000 -1.0000
vt 0.933365 0.397933
vt 0.933365 0.895911
vt 0.929307 0.895911
vt 0.929307 0.397933
vt 0.924797 0.895911
vt 0.924797 0.397933
vt 0.920010 0.895911
vt 0.920010 0.397933
vt 0.915129 0.895911
vt 0.915129 0.397933
vt 0.910342 0.895911
vt 0.910342 0.397933
vt 0.905832 0.895911
vt 0.905832 0.397933
vt 0.901774 0.895911
vt 0.901774 0.397933
vt 0.898322 0.895911
vt 0.898322 0.397933
vt 0.968408 0.397933
vt 0.968408 0.895911
vt 0.964349 0.895911
vt 0.964349 0.397933
vt 0.959840 0.895911
vt 0.959840 0.397933
vt 0.955053 0.895911
vt 0.955053 0.397933
vt 0.950172 0.895911
vt 0.950172 0.397933
vt 0.945385 0.895911
vt 0.945385 0.397933
vt 0.940875 0.895911
vt 0.940875 0.397933
vt 0.936817 0.895911
vt 0.936817 0.397933
vt 0.859828 0.895911
vt 0.859828 0.397933
vt 0.863279 0.397933
vt 0.863279 0.895911
vt 0.867337 0.397933
vt 0.867337 0.895911
vt 0.871847 0.397933
vt 0.871847 0.895911
vt 0.876634 0.397933
vt 0.876634 0.895911
vt 0.881515 0.397933
vt 0.881515 0.895911
vt 0.886303 0.397933
vt 0.886303 0.895911
vt 0.890812 0.397933
vt 0.890812 0.895911
vt 0.894870 0.397933
vt 0.894870 0.895911
vt 0.898322 0.397933
vt 0.898322 0.895911
vt 0.968408 0.895911
vt 0.968408 0.397933
vt 0.972467 0.397933
vt 0.972467 0.895911
vt 0.976977 0.397933
vt 0.976976 0.895911
vt 0.981764 0.397933
vt 0.981764 0.895911
vt 0.986645 0.397933
vt 0.986645 0.895911
vt 0.991432 0.397933
vt 0.991432 0.895911
vt 0.995941 0.397933
vt 0.995941 0.895911
vt 0.787494 0.040574
vt 0.784043 0.044025
vt 0.779985 0.046738
vt 0.775475 0.048605
vt 0.770688 0.049558
vt 0.765807 0.049558
vt 0.761020 0.048606
vt 0.756510 0.046739
vt 0.752452 0.044027
vt 0.749000 0.040576
vt 0.746288 0.036517
vt 0.744420 0.032008
vt 0.743468 0.027221
vt 0.743468 0.022340
vt 0.744419 0.017552
vt 0.746288 0.013043
vt 0.748999 0.008984
vt 0.752450 0.005532
vt 0.756508 0.002821
vt 0.761018 0.000953
vt 0.765805 0.000000
vt 0.770686 0.000000
vt 0.775473 0.000952
vt 0.779983 0.002820
vt 0.784041 0.005531
vt 0.787493 0.008982
vt 0.790205 0.013041
vt 0.792073 0.017550
vt 0.793026 0.022338
vt 0.793026 0.027218
vt 0.792074 0.032006
vt 0.790206 0.036515
vt 1.000000 0.397933
vt 1.000000 0.895911
vt 0.936816 0.397933
vt 0.936816 0.895911
vt 0.749000 0.090133
vt 0.746288 0.086075
vt 0.744420 0.081566
vt 0.743468 0.076779
vt 0.743468 0.071897
vt 0.744420 0.067110
vt 0.746287 0.062601
vt 0.748999 0.058542
vt 0.752450 0.055090
vt 0.756509 0.052379
vt 0.761018 0.050511
vt 0.765806 0.049558
vt 0.770686 0.049558
vt 0.775474 0.050510
vt 0.779983 0.052378
vt 0.784042 0.055090
vt 0.787493 0.058541
vt 0.790205 0.062599
vt 0.792073 0.067109
vt 0.793026 0.071896
vt 0.793026 0.076777
vt 0.792073 0.081564
vt 0.790206 0.086074
vt 0.787494 0.090132
vt 0.784043 0.093584
vt 0.779984 0.096296
vt 0.775475 0.098164
vt 0.770688 0.099116
vt 0.765807 0.099116
vt 0.761019 0.098164
vt 0.756510 0.096296
vt 0.752451 0.093585
s 1
usemtl Material.004
f 1/1/1 2/2/1 4/3/1 3/4/1
f 3/4/2 4/3/2 6/5/2 5/6/2
f 5/6/3 6/5/3 8/7/3 7/8/3
f 7/8/4 8/7/4 10/9/4 9/10/4
f 9/10/5 10/9/5 12/11/5 11/12/5
f 11/12/6 12/11/6 14/13/6 13/14/6
f 13/14/7 14/13/7 16/15/7 15/16/7
f 15/16/8 16/15/8 18/17/8 17/18/8
f 17/19/9 18/20/9 20/21/9 19/22/9
f 19/22/10 20/21/10 22/23/10 21/24/10
f 21/24/11 22/23/11 24/25/11 23/26/11
f 23/26/12 24/25/12 26/27/12 25/28/12
f 25/28/13 26/27/13 28/29/13 27/30/13
f 27/30/14 28/29/14 30/31/14 29/32/14
f 29/32/15 30/31/15 32/33/15 31/34/15
f 31/35/16 32/36/16 34/37/16 33/38/16
f 33/38/17 34/37/17 36/39/17 35/40/17
f 35/40/18 36/39/18 38/41/18 37/42/18
f 37/42/19 38/41/19 40/43/19 39/44/19
f 39/44/20 40/43/20 42/45/20 41/46/20
f 41/46/21 42/45/21 44/47/21 43/48/21
f 43/48/22 44/47/22 46/49/22 45/50/22
f 45/50/23 46/49/23 48/51/23 47/52/23
f 47/52/24 48/51/24 50/53/24 49/54/24
f 49/55/25 50/56/25 52/57/25 51/58/25
f 51/58/26 52/57/26 54/59/26 53/60/26
f 53/60/27 54/59/27 56/61/27 55/62/27
f 55/62/28 56/61/28 58/63/28 57/64/28
f 57/64/29 58/63/29 60/65/29 59/66/29
f 59/66/30 60/65/30 62/67/30 61/68/30
f 4/69/31 2/70/31 64/71/31 62/72/31 60/73/31 58/74/31 56/75/31 54/76/31 52/77/31 50/78/31 48/79/31 46/80/31 44/81/31 42/82/31 40/83/31 38/84/31 36/85/31 34/86/31 32/87/31 30/88/31 28/89/31 26/90/31 24/91/31 22/92/31 20/93/31 18/94/31 16/95/31 14/96/31 12/97/31 10/98/31 8/99/31 6/100/31
f 61/68/32 62/67/32 64/101/32 63/102/32
f 63/103/33 64/104/33 2/2/33 1/1/33
f 1/105/34 3/106/34 5/107/34 7/108/34 9/109/34 11/110/34 13/111/34 15/112/34 17/113/34 19/114/34 21/115/34 23/116/34 25/117/34 27/118/34 29/119/34 31/120/34 33/121/34 35/122/34 37/123/34 39/124/34 41/125/34 43/126/34 45/127/34 47/128/34 49/129/34 51/130/34 53/131/34 55/132/34 57/133/34 59/134/34 61/135/34 63/136/34
o Icosphere
v 1.906190 0.448291 1.212127
v 2.290808 0.050341 1.134323
v 1.759282 -0.042454 0.988664
v 1.430772 0.200483 1.369999
v 1.759282 0.443420 1.751333
v 2.290808 0.350625 1.605675
v 2.053098 -0.443420 1.244107
v 1.521572 -0.350625 1.389766
v 1.521572 -0.050341 1.861118
v 2.053098 0.042454 2.006777
v 2.381607 -0.200483 1.625442
v 1.906190 -0.448291 1.783314
vn 0.1876 0.3600 -0.9139
vn 0.6071 0.6702 -0.4270
vn -0.4911 0.4785 -0.7279
vn -0.4911 0.8619 -0.1260
vn 0.1876 0.9804 0.0600
vn 0.9822 0.1582 -0.1008
vn 0.3035 -0.3437 -0.8887
vn -0.7946 -0.1520 -0.5877
vn -0.7946 0.4684 0.3862
vn 0.3035 0.6601 0.6871
vn 0.7946 -0.4684 -0.3861
vn -0.3035 -0.6601 -0.6871
vn -0.9822 -0.1582 0.1008
vn -0.3035 0.3437 0.8887
vn 0.7946 0.1520 0.5877
vn 0.4911 -0.8619 0.1260
vn -0.1876 -0.9804 -0.0600
vn -0.6071 -0.6702 0.4270
vn -0.1876 -0.3600 0.9139
vn 0.4911 -0.4785 0.7279
vt 0.547242 0.347268
vt 0.743468 0.195272
vt 0.743468 0.397932
vt 0.513725 0.101333
vt 0.457282 0.799545
vt 0.429914 0.598741
vt 0.644871 0.722845
vt 0.187588 0.799545
vt -0.000000 0.722844
vt 0.214957 0.598742
vt 0.371734 0.245934
vt 0.689236 0.000000
vt 0.402544 0.799545
vt 0.214957 0.722844
vt 0.429914 0.598737
vt 0.644871 0.474634
vt 0.000000 0.474634
vt 0.859828 0.722844
vt 0.672241 0.799545
vt 0.644871 0.598736
vt 0.214957 0.474634
vt 0.457283 0.397933
vt 0.317502 0.397933
vt 0.141992 0.296599
vt 0.371734 0.202660
vt 0.187588 0.397932
vt 0.859828 0.474633
vt 0.402544 0.397933
vt 0.000000 0.151998
vt 0.175508 0.050664
vt 0.371734 -0.000000
vt 0.672240 0.397933
s 1
usemtl Material.006
f 65/137/35 66/138/35 67/139/35
f 66/138/36 65/137/36 70/140/36
f 65/141/37 67/142/37 68/143/37
f 65/144/38 68/145/38 69/146/38
f 65/137/39 69/147/39 70/140/39
f 66/138/40 70/140/40 75/148/40
f 67/149/41 66/150/41 71/151/41
f 68/143/42 67/142/42 72/152/42
f 69/146/43 68/145/43 73/153/43
f 70/154/44 69/155/44 74/156/44
f 66/150/45 75/157/45 71/151/45
f 67/142/46 71/158/46 72/152/46
f 68/159/47 72/160/47 73/161/47
f 69/146/48 73/153/48 74/162/48
f 70/154/49 74/156/49 75/163/49
f 71/151/50 75/157/50 76/164/50
f 72/160/51 71/165/51 76/166/51
f 73/161/52 72/160/52 76/166/52
f 74/167/53 73/161/53 76/166/53
f 75/163/54 74/156/54 76/168/54
